<svg width="289" height="289" viewBox="0 0 289 289" fill="none" xmlns="http://www.w3.org/2000/svg">
<path fill-rule="evenodd" clip-rule="evenodd" d="M7.49363 38.665C0.676514 52.7199 0.676514 70.9602 0.676514 107.441C0.676514 113.879 0.676514 117.097 1.87953 119.578C3.05584 122.003 5.0144 123.961 7.4396 125.138C9.91988 126.341 13.1388 126.341 19.5765 126.341H111.677C122.99 126.341 128.647 126.341 132.162 122.826C135.677 119.311 135.677 113.655 135.677 102.341V20.5908C135.677 12.8769 135.677 9.01997 133.969 6.17159C132.955 4.47894 131.538 3.06261 129.846 2.04808C126.997 0.34082 123.14 0.34082 115.427 0.34082H107.777C71.2959 0.34082 53.0556 0.34082 39.0007 7.15794C25.2579 13.8237 14.1594 24.9222 7.49363 38.665ZM157.191 165.856C153.677 169.37 153.677 175.027 153.677 186.341V268.091C153.677 275.805 153.677 279.662 155.384 282.51C156.398 284.203 157.815 285.619 159.507 286.634C162.356 288.341 166.213 288.341 173.927 288.341H181.577C218.057 288.341 236.297 288.341 250.352 281.524C264.095 274.858 275.194 263.759 281.859 250.017C288.677 235.962 288.677 217.721 288.677 181.241C288.677 174.803 288.677 171.584 287.473 169.104C286.297 166.679 284.339 164.72 281.913 163.544C279.433 162.341 276.214 162.341 269.777 162.341H177.677C166.363 162.341 160.706 162.341 157.191 165.856ZM153.677 10.3408C153.677 4.81798 158.154 0.34082 163.677 0.34082H179.391C217.933 0.34082 237.204 0.34082 251.887 7.92652C264.414 14.398 274.619 24.6033 281.091 37.1301C288.677 51.8136 288.677 71.0846 288.677 109.627V125.341C288.677 130.864 284.199 135.341 278.677 135.341C209.641 135.341 153.677 79.3764 153.677 10.3408ZM8.31802 153.341C4.09773 153.341 0.676514 156.762 0.676514 160.982V173.591C0.676514 217.303 0.676514 239.159 10.351 255.3C16.1 264.892 24.1258 272.917 33.7175 278.666C49.8584 288.341 71.7144 288.341 115.427 288.341H128.035C132.255 288.341 135.677 284.92 135.677 280.699C135.677 210.361 78.6562 153.341 8.31802 153.341Z" fill="black"/>
</svg>
